<svg width="1920" height="50" viewBox="0 0 1920 50" fill="none" xmlns="http://www.w3.org/2000/svg">
<path d="M1920 3.11089L1874.27 1.81654C1828.53 0.424509 1737.33 -2.01765 1645.33 3.11086C1554.27 8.23938 1462.67 21.427 1372 29.1686C1280 37.0568 1188 39.4989 1097.33 35.6647C1005.73 31.684 914.667 21.427 822.667 14.8331C731.467 8.23931 640 5.79714 548 9.63132C457.2 13.612 365.333 23.8691 274.667 23.9423C182.8 23.869 91.9999 13.612 45.3333 8.31251L-5.31213e-05 3.11072L-5.72205e-05 50.0001L45.7333 50.0001C91.4667 50.0001 182.667 50.0001 274.667 50.0001C365.733 50.0001 457.333 50.0001 548 50.0001C640 50.0001 732 50.0001 822.667 50.0001C914.267 50.0002 1005.33 50.0002 1097.33 50.0002C1188.53 50.0002 1280 50.0002 1372 50.0002C1462.8 50.0002 1554.67 50.0002 1645.33 50.0002C1737.2 50.0002 1828 50.0002 1874.67 50.0002L1920 50.0002L1920 3.11089Z" fill="#FAF5F8"/>
</svg>
