<svg width="161" height="45" viewBox="0 0 161 45" fill="none" xmlns="http://www.w3.org/2000/svg">
<path d="M51.6488 15.0661C49.6597 12.9845 47.0076 11.9437 43.7587 12.0087C40.3109 12.0087 37.5925 12.9845 35.736 15.0011C33.8132 17.0177 32.8849 19.7498 32.8849 23.3276C32.8186 26.7754 33.8132 29.5726 35.8023 31.6542C37.7914 33.7358 40.4435 34.7767 43.6924 34.7767C47.1402 34.7767 49.7923 33.8009 51.7151 31.7843C53.638 29.7677 54.6325 26.9705 54.6325 23.3927C54.5662 19.8799 53.638 17.1478 51.6488 15.0661ZM47.2065 28.3366C46.4772 29.3774 45.2837 29.9629 43.6924 29.9629C42.1011 29.9629 40.9077 29.4425 40.1783 28.3366C39.449 27.2307 39.0512 25.6044 39.0512 23.3927C39.0512 21.181 39.3827 19.5547 40.112 18.4488C40.8414 17.408 42.0348 16.8225 43.6261 16.8225C45.2174 16.8225 46.4109 17.3429 47.1402 18.4488C47.8695 19.4896 48.2674 21.181 48.2674 23.3927C48.3337 25.5394 47.9359 27.2307 47.2065 28.3366Z" fill="#F73859"/>
<path d="M59.6052 3.8125V34.3866H65.7051V3.8125H59.6052Z" fill="#101921"/>
<path d="M91.3645 21.9616C91.3645 18.8392 90.5026 16.4323 88.7124 14.6759C86.9222 12.9195 84.469 12.0088 81.2201 12.0088C77.9712 12.0088 75.4517 12.9846 73.5289 15.0011C71.6724 17.0177 70.7441 19.8149 70.7441 23.4578C70.7441 27.1007 71.7387 29.8979 73.7941 31.8494C75.8495 33.801 78.6343 34.7767 82.2146 34.7767C85.3309 34.7767 87.9831 34.2563 90.1048 33.2155V28.5969C87.5852 29.7678 85.0657 30.3532 82.5462 30.3532C80.8223 30.3532 79.4962 29.8979 78.5017 28.9221C77.5071 27.9463 77.043 26.6453 76.9767 24.8889H91.4308V21.9616H91.3645ZM77.043 20.9208C77.1756 19.4246 77.5734 18.3188 78.3027 17.4731C79.0321 16.6925 80.0929 16.2371 81.3527 16.2371C82.6788 16.2371 83.6733 16.6274 84.4027 17.4731C85.132 18.3188 85.5298 19.4246 85.5298 20.9208H77.043Z" fill="#101921"/>
<path d="M112.383 13.8954C110.792 12.5944 108.471 11.9438 105.355 11.9438C102.239 11.9438 99.4537 12.5944 96.8679 13.9604L98.9233 17.9936C101.377 16.9528 103.432 16.4324 105.222 16.4324C107.543 16.4324 108.736 17.5383 108.736 19.75V20.7258L104.824 20.8559C101.443 20.986 98.9233 21.5714 97.2657 22.7424C95.6081 23.8482 94.8125 25.5396 94.8125 27.8164C94.8125 30.0931 95.4092 31.7845 96.669 33.0205C97.9288 34.2564 99.5864 34.8419 101.774 34.8419C103.498 34.8419 104.957 34.5817 106.018 34.1263C107.079 33.671 108.14 32.7602 109.2 31.4592H109.333L110.526 34.4516H114.77V19.75C114.77 17.1479 113.974 15.1964 112.383 13.8954ZM108.736 25.9949C108.736 27.2959 108.338 28.4018 107.476 29.1824C106.615 29.963 105.487 30.3533 104.095 30.3533C102.106 30.3533 101.111 29.5077 101.111 27.8164C101.111 26.6454 101.509 25.7347 102.371 25.2143C103.233 24.6288 104.559 24.3036 106.349 24.2385L108.736 24.1735V25.9949Z" fill="#101921"/>
<path d="M133.534 12.0088C132.141 12.0088 130.882 12.3991 129.688 13.1147C128.495 13.8302 127.566 14.871 126.837 16.107H126.572L125.71 12.3991H121.069V34.3214H127.169V23.1976C127.169 21.4412 127.699 20.0101 128.826 19.0343C129.887 18.0586 131.412 17.5381 133.401 17.5381C134.064 17.5381 134.727 17.6032 135.191 17.7333L135.655 12.1389C134.992 12.0738 134.329 12.0088 133.534 12.0088Z" fill="#101921"/>
<path d="M158.331 14.0255C157.005 12.6594 155.016 11.9438 152.364 11.9438C150.839 11.9438 149.446 12.2041 148.253 12.7895C147.06 13.3099 146.131 14.1556 145.468 15.1964H145.137L144.341 12.3992H139.634V34.3215H145.733V24.0434C145.733 21.4413 146.131 19.5548 146.927 18.449C147.723 17.3431 148.916 16.7576 150.64 16.7576C151.9 16.7576 152.828 17.1479 153.358 17.9286C153.955 18.7092 154.22 19.8801 154.22 21.5064V34.3215H160.32V20.0102C160.32 17.4082 159.657 15.4566 158.331 14.0255Z" fill="#101921"/>
<path d="M28.3764 31.3943C27.1166 30.3535 25.1938 29.833 22.7406 29.833H18.9613C16.7069 29.833 15.5798 29.3777 15.5798 28.532C15.5798 27.9466 15.9113 27.4261 16.508 26.9708L18.4971 27.1009C21.4808 27.1009 23.8014 26.4504 25.459 25.0843C27.1166 23.7833 27.9785 21.9618 27.9785 19.5549C27.9785 18.7743 27.8459 17.9937 27.5807 17.3432C27.3818 17.3432 27.1829 17.2781 27.0503 17.2781L26.5862 17.148V17.083C26.1884 16.8228 25.8568 16.4325 25.7242 15.9121C25.6579 15.6519 25.6579 15.3266 25.6579 15.0664C25.1275 16.3024 24.0003 17.6034 22.409 18.7093L22.1438 18.9044C22.1438 19.0996 22.1438 19.3598 22.1438 19.62C22.1438 20.856 21.8786 21.8317 21.3482 22.4823C20.8178 23.1328 19.9558 23.458 18.8287 23.458C17.7015 23.458 16.9059 23.1328 16.3091 22.4172C16.0439 22.0919 15.845 21.7667 15.7124 21.3764H15.6461C14.5852 21.5715 13.5244 21.7016 12.5298 21.7016C11.6016 21.7016 10.6733 21.6366 9.81137 21.4414C10.0103 22.157 10.2755 22.7425 10.607 23.3279C11.2701 24.4338 12.1983 25.2144 13.3918 25.7348C12.3972 26.3203 11.6679 26.8407 11.2037 27.4261C10.7396 28.0116 10.4744 28.5971 10.4744 29.3777C10.4744 30.1583 10.7396 30.7438 11.1374 31.3292C11.6016 31.9147 12.132 32.37 12.795 32.6302C11.1374 33.0206 9.94398 33.6711 9.08203 34.5818C8.22009 35.4925 7.82227 36.5984 7.82227 37.8994C7.82227 39.8509 8.68421 41.3471 10.3418 42.3879C11.9994 43.4288 14.3863 44.0142 17.5026 44.0142C21.6134 44.0142 24.7297 43.2987 26.9177 41.8675C29.1057 40.4364 30.2329 38.4849 30.2329 35.8828C30.2992 33.9313 29.6361 32.37 28.3764 31.3943ZM23.0058 39.2655C21.746 39.8509 20.0221 40.1762 17.8341 40.1762C16.3754 40.1762 15.2483 39.916 14.4526 39.4606C13.657 39.0053 13.2592 38.3548 13.2592 37.5091C13.2592 36.6634 13.657 36.0129 14.3863 35.4925C15.182 34.9721 16.1102 34.7119 17.1711 34.7119H20.3536C21.9449 34.7119 23.0721 34.842 23.8014 35.1672C24.5308 35.4925 24.8623 36.078 24.8623 36.8586C24.8623 37.8344 24.2655 38.615 23.0058 39.2655Z" fill="#F73859"/>
<path d="M9.74491 20.7908C11.4025 21.1811 13.4579 21.1811 15.5796 20.7908C15.5133 20.5956 15.5133 20.4005 15.5133 20.1403C15.5133 19.9451 15.5133 19.75 15.5133 19.6199C15.5133 16.9528 16.6405 15.6517 18.8948 15.6517C20.4198 15.6517 21.4143 16.3023 21.8785 17.5382C21.9448 17.7334 22.0111 17.9936 22.0774 18.1887C24.4643 16.5625 25.7241 14.5459 25.3262 13.0497C25.3262 12.9846 25.2599 12.7895 25.2599 12.7244C25.2599 12.7244 25.2599 12.5943 25.1936 12.3992C25.1273 12.2691 25.061 12.0089 24.9947 11.7487C24.7295 10.7079 24.2654 9.01652 24.0665 8.30095C23.8676 7.58539 23.4697 8.04075 23.4697 8.04075L19.6904 11.9438L17.1709 14.6109C16.7731 15.0012 16.2427 15.3265 15.6459 15.4566C15.0492 15.5867 14.4525 15.6517 13.922 15.4566L11.2699 14.676L5.30257 12.9846C5.30257 12.9846 4.50693 12.7895 4.77214 13.7002C5.03736 14.741 5.8993 17.7984 5.8993 17.7984C5.8993 17.8635 5.96561 18.0586 5.96561 18.1237C6.23082 19.1645 7.42428 20.0102 9.08187 20.5306C9.28078 20.6607 9.546 20.7257 9.74491 20.7908Z" fill="#F73859"/>
<path d="M14.121 14.1557C14.784 14.3508 15.7123 14.0906 16.1764 13.6353L17.7014 12.009L25.5252 3.87759C25.9893 3.35718 25.8567 2.83677 25.1937 2.64162L12.3971 0.10462C11.7341 -0.0905342 10.8058 0.169671 10.3417 0.62503L0.595084 9.2118C0.130959 9.73221 0.263566 10.2526 0.926601 10.4478L12.3308 13.7003L14.121 14.1557Z" fill="#F73859"/>
<path d="M25.4589 6.34947C25.3263 6.47957 24.9285 6.86988 24.8622 6.99998C24.7296 7.19513 24.8622 7.52039 24.8622 7.52039C24.8622 7.52039 25.4589 9.73213 26.0556 11.7487C26.1219 11.9439 26.1882 12.2041 26.2545 12.3992C26.4534 13.1798 26.6524 13.8304 26.785 14.2857C26.785 14.4158 26.7187 14.4809 26.7187 14.4809C26.3871 14.8061 26.2545 15.3265 26.3871 15.7819C26.5197 16.2373 26.8513 16.5625 27.2491 16.6926C27.448 16.7577 27.7132 16.7577 27.9784 16.6926C28.4426 16.5625 28.7741 16.2373 28.9067 15.7819C28.973 15.5217 28.973 15.2615 28.9067 15.0013C28.7741 14.5459 28.3762 14.1556 27.9121 14.0906C27.8458 14.0906 27.7795 14.0255 27.7132 13.9605C27.5806 13.5702 27.448 12.9847 27.2491 12.3342C26.5861 9.92729 25.5915 6.47957 25.5915 6.47957C25.5915 6.47957 25.6578 6.15431 25.4589 6.34947Z" fill="#F73859"/>
</svg>
